<?xml version="1.0" encoding="UTF-8"?>
<svg width="140px" height="140px" viewBox="0 0 140 140" version="1.1" xmlns="http://www.w3.org/2000/svg" xmlns:xlink="http://www.w3.org/1999/xlink">
    <!-- Generator: Sketch 44.1 (41455) - http://www.bohemiancoding.com/sketch -->
    <title>Combined Shape</title>
    <desc>Created with Sketch.</desc>
    <defs></defs>
    <g id="Icons" stroke="none" stroke-width="1" fill="none" fill-rule="evenodd">
        <path d="M0,0 L140,0 L140,140 L0,140 L0,0 Z M69.888,11 C36.541,11 9.5,38.036 9.5,71.388 C9.5,98.069 26.803,120.705 50.797,128.69 C53.815,129.249 54.923,127.38 54.923,125.785 C54.923,124.345 54.867,119.588 54.841,114.542 C38.041,118.195 34.496,107.417 34.496,107.417 C31.749,100.437 27.791,98.581 27.791,98.581 C22.312,94.833 28.204,94.91 28.204,94.91 C34.268,95.336 37.461,101.133 37.461,101.133 C42.847,110.365 51.588,107.696 55.034,106.153 C55.576,102.25 57.141,99.586 58.868,98.078 C45.455,96.551 31.355,91.373 31.355,68.234 C31.355,61.641 33.714,56.254 37.577,52.025 C36.95,50.504 34.883,44.362 38.162,36.044 C38.162,36.044 43.233,34.421 54.773,42.234 C59.59,40.896 64.756,40.225 69.888,40.202 C75.02,40.225 80.19,40.896 85.016,42.234 C96.542,34.421 101.606,36.044 101.606,36.044 C104.893,44.362 102.825,50.504 102.198,52.025 C106.07,56.254 108.413,61.641 108.413,68.234 C108.413,91.428 94.286,96.535 80.839,98.03 C83.005,99.904 84.935,103.579 84.935,109.213 C84.935,117.293 84.865,123.796 84.865,125.785 C84.865,127.392 85.952,129.275 89.013,128.682 C112.994,120.688 130.275,98.06 130.275,71.388 C130.275,38.036 103.238,11 69.888,11 Z M54.0747044,109.690474 C53.9837044,109.196474 53.3447044,108.904474 52.6307044,109.028474 C51.9307044,109.157474 51.4227044,109.656474 51.5097044,110.154474 C51.5987044,110.636474 52.2477044,110.936474 52.9487044,110.808474 C53.6617044,110.675474 54.1607044,110.176474 54.0747044,109.690474 Z M50.095,109.881357 C50.095,109.386357 49.507,108.986357 48.789,109.000357 C48.067,109.012357 47.5,109.421357 47.5,109.924357 C47.508,110.414357 48.092,110.817357 48.814,110.801357 C49.532,110.792357 50.112,110.379357 50.095,109.881357 Z M45.0260206,109.318958 C45.1680206,108.837958 44.7200206,108.287958 44.0380206,108.081958 C43.3490206,107.866958 42.6670206,108.090958 42.5250206,108.566958 C42.3870206,109.044958 42.8340206,109.598958 43.5170206,109.805958 C44.2010206,110.006958 44.8800206,109.791958 45.0260206,109.318958 Z M40.5718971,107.99309 C40.9248971,107.63209 40.7648971,106.93609 40.2408971,106.45009 C39.7208971,105.95609 39.0118971,105.85309 38.6768971,106.21909 C38.3448971,106.58409 38.4918971,107.27509 39.0198971,107.76209 C39.5358971,108.26009 40.2408971,108.35809 40.5718971,107.99309 Z M37.125508,104.065625 C37.503508,103.802625 37.503508,103.158625 37.134508,102.612625 C36.755508,102.079625 36.159508,101.847625 35.784508,102.105625 C35.406508,102.363625 35.406508,103.007625 35.776508,103.544625 C36.150508,104.081625 36.755508,104.322625 37.125508,104.065625 Z M34.0876883,100.674446 C34.3886883,100.404446 34.3116883,99.8454458 33.9166883,99.4194458 C33.5206883,98.9984458 32.9746883,98.8734458 32.6776883,99.1404458 C32.3856883,99.4114458 32.4596883,99.9744458 32.8546883,100.395446 C33.2366883,100.817446 33.7996883,100.941446 34.0876883,100.674446 Z M32.1172697,98.0239808 C32.2692697,97.7229808 32.0192697,97.3099808 31.5802697,97.1129808 C31.1432697,96.9059808 30.6702697,96.9919808 30.5402697,97.3009808 C30.3982697,97.6019808 30.6442697,98.0109808 31.0822697,98.2079808 C31.5122697,98.4139808 31.9842697,98.3239808 32.1172697,98.0239808 Z" id="Combined-Shape" fill="#000000"></path>
    </g>
</svg>