<?xml version="1.0" encoding="UTF-8"?>
<svg width="140px" height="140px" viewBox="0 0 140 140" version="1.1" xmlns="http://www.w3.org/2000/svg" xmlns:xlink="http://www.w3.org/1999/xlink">
    <!-- Generator: Sketch 44.1 (41455) - http://www.bohemiancoding.com/sketch -->
    <title>In-2C-PMS-0p5in-TM</title>
    <desc>Created with Sketch.</desc>
    <defs>
        <path d="M70,0 L140,0 L140,139.766667 L0,139.766667 L0,0 L70,0 Z M31.5079134,19.25 C24.7221415,19.25 19.25,24.6330871 19.25,31.2533534 C19.25,37.8813764 24.7221415,43.2605851 31.5079134,43.2605851 C38.2699451,43.2605851 43.75,37.8813764 43.75,31.2533534 C43.75,24.6330871 38.2699451,19.25 31.5079134,19.25 Z M20.9276486,119 L42.0763081,119 L42.0763081,52.3746015 L20.9276486,52.3746015 L20.9276486,119 Z M54.25,52.4090561 L54.25,119 L74.9956744,119 L74.9956744,86.0592094 C74.9956744,77.3685466 76.6450586,68.9608536 87.4555272,68.9608536 C98.0987233,68.9608536 98.2504356,78.8958085 98.2504356,86.6173965 L98.2504356,119 L119,119 L119,82.4736326 C119,64.5379963 115.113833,50.75 94.0958546,50.75 C83.9933764,50.75 77.216897,56.2698501 74.4471763,61.5067303 L74.1593121,61.5067303 L74.1593121,52.4090561 L54.25,52.4090561 Z" id="path-1"></path>
    </defs>
    <g id="Icons" stroke="none" stroke-width="1" fill="none" fill-rule="evenodd">
        <g id="In-2C-PMS-0p5in-TM">
            <mask id="mask-2" fill="white">
                <use xlink:href="#path-1"></use>
            </mask>
            <use id="Combined-Shape" fill="#0976B4" xlink:href="#path-1"></use>
        </g>
    </g>
</svg>