<?xml version="1.0" encoding="UTF-8"?>
<svg width="140px" height="140px" viewBox="0 0 140 140" version="1.1" xmlns="http://www.w3.org/2000/svg" xmlns:xlink="http://www.w3.org/1999/xlink">
    <!-- Generator: Sketch 44.1 (41455) - http://www.bohemiancoding.com/sketch -->
    <title>Combined Shape</title>
    <desc>Created with Sketch.</desc>
    <defs></defs>
    <g id="Icons" stroke="none" stroke-width="1" fill="none" fill-rule="evenodd">
        <path d="M0,0 L140,0 L140,140 L0,140 L0,0 Z M49.8,80.4 L87.6,88.3 L89.2,80.7 L51.4,72.8 L49.8,80.4 Z M54.8,62.4 L89.8,78.7 L93,71.7 L58,55.3 L54.8,62.4 Z M64.5,45.2 L94.2,69.9 L99.1,64 L69.4,39.3 L64.5,45.2 Z M83.7,26.9 L77.5,31.5 L100.5,62.5 L106.7,57.9 L83.7,26.9 Z M49,98 L87.6,98 L87.6,90.3 L49,90.3 L49,98 Z M95.4,105.8 L41.3,105.8 L41.3,82.6 L33.6,82.6 L33.6,113.5 L103.1,113.5 L103.1,82.6 L95.4,82.6 L95.4,105.8 Z" id="Combined-Shape" fill="#F48023"></path>
    </g>
</svg>